<?xml version="1.0" encoding="UTF-8" standalone="no"?><!DOCTYPE svg PUBLIC "-//W3C//DTD SVG 1.1//EN" "http://www.w3.org/Graphics/SVG/1.1/DTD/svg11.dtd"><svg width="100%" height="100%" viewBox="0 0 1024 1024" version="1.1" xmlns="http://www.w3.org/2000/svg" xmlns:xlink="http://www.w3.org/1999/xlink" xml:space="preserve" xmlns:serif="http://www.serif.com/" style="fill-rule:evenodd;clip-rule:evenodd;stroke-linejoin:round;stroke-miterlimit:2;"><rect id="Artboard1" x="0" y="0" width="1024" height="1024" style="fill:none;"/><clipPath id="_clip1"><rect x="0" y="0" width="1024" height="1024"/></clipPath><g clip-path="url(#_clip1)"><g><rect x="-474" y="-705" width="1960" height="1827" style="fill:url(#_Linear2);fill-rule:nonzero;"/><g><path d="M732.039,244.253l0,111.377c-51.408,-64.979 -130.942,-106.754 -220.039,-106.754c-154.638,0 -280.445,125.807 -280.445,280.453c0,162.625 119.913,250.417 232.739,250.417c65.368,0 99.151,-28.026 126.294,-50.521c21.884,-18.12 37.697,-31.241 68.723,-31.241c30.156,0 49.844,11.718 61.971,36.937c10.397,21.587 10.752,44.577 10.756,44.784l30.205,-0.124l30.201,0c0,-49.118 -27.824,-142.024 -133.133,-142.024c-52.808,0 -81.746,24.018 -107.278,45.151c-24.666,20.473 -44.148,36.611 -87.739,36.611c-85.638,0 -172.328,-65.252 -172.328,-189.99c0,-121.333 98.706,-220.043 220.034,-220.043c121.329,0 220.039,98.71 220.039,220.043l0,60.386c24.097,9.122 44.086,22.66 60.406,38.881l0,-384.343l-60.406,0Z" style="fill:#030404;fill-rule:nonzero;"/><path d="M417.447,639.534c0,23.568 19.11,42.679 42.683,42.679c23.573,0 42.679,-19.11 42.679,-42.679c0,-23.568 -19.106,-42.679 -42.679,-42.679c-23.572,0 -42.683,19.11 -42.683,42.679Z" style="fill:#030404;fill-rule:nonzero;"/></g></g></g><defs><linearGradient id="_Linear2" x1="0" y1="0" x2="1" y2="-0.07" gradientUnits="userSpaceOnUse" gradientTransform="matrix(1941.9386,-1810.164195,1941.9386,1810.164195,-455.33737,1104.60696)"><stop offset="0" style="stop-color:#d7ede8;stop-opacity:1"/><stop offset="1" style="stop-color:#f8ac99;stop-opacity:1"/></linearGradient></defs></svg>